<svg width="75" height="80" viewBox="0 0 75 80" fill="none" xmlns="http://www.w3.org/2000/svg">
<path d="M44.0562 13.5111C45.3184 13.4454 46.5933 12.6329 47.5947 11.8789C50.2121 9.90704 54.5167 3.96414 57.3895 3.24478C61.7853 2.14384 57.6357 8.76593 56.7019 10.2247C55.2263 12.5252 54.9235 12.9835 53.7963 15.5322C53.3804 16.4707 51.0931 20.4691 52.0069 21.2086C52.6052 21.6924 54.9107 22.4227 55.757 22.7039C58.4018 23.5857 61.1159 24.2704 63.9029 24.4986C63.7953 25.8351 65.0192 26.3463 64.182 27.7522C63.2937 29.2456 60.6672 28.3328 59.1369 28.5446C57.9786 28.7034 56.6927 29.3844 55.5017 29.6528C54.5368 29.8701 53.1104 29.8573 52.348 30.1476C50.6134 30.8067 52.5322 33.1492 52.959 34.0894C54.2723 36.9869 56.1893 40.1346 57.1797 43.0102C57.6394 44.3448 58.8979 47.4395 57.3074 48.2556C54.5824 49.6542 52.1145 45.4987 50.4091 43.945C49.7671 43.3589 48.7675 42.9171 48.2532 42.4515C47.6312 41.8891 47.3649 40.7353 46.6043 40.0853C43.7461 37.6424 43.5874 42.3894 42.9581 43.9322C42.2213 45.7379 40.7092 48.0822 39.996 49.9134C39.4142 51.4069 39.7406 52.9187 38.8524 54.4286C38.6554 54.7645 37.9604 55.6518 37.6577 55.7924C35.478 56.7911 35.5966 51.7246 35.4525 50.7003C35.3357 49.8678 34.7703 49.048 35.0147 48.2173L35.6513 48.9476C35.602 46.3751 35.7552 43.2713 34.9326 40.8138C34.2377 38.736 33.7507 40.0835 32.4392 40.7097C31.8848 40.9744 30.8341 41.1406 30.4475 41.4546C30.0608 41.7686 29.8875 42.7509 29.5318 43.2767C29.1287 43.8701 27.5637 45.3417 26.9053 45.5772C26.5533 45.7014 26.0936 45.5863 25.8054 45.7543C25.6704 45.8328 23.5729 47.6367 23.4452 47.7736C22.1228 49.205 22.67 48.5477 21.1141 49.457C20.4046 49.8714 19.7534 50.819 18.8779 51.0527C17.3385 51.4635 16.1894 50.872 16.1237 49.2233C15.9887 45.8894 18.3636 44.7465 19.9723 42.289C21.0156 40.6933 21.561 38.6082 22.4365 37.2699C23.5473 35.5756 26.6061 34.3377 24.7694 31.5954C22.9983 31.7305 21.3713 30.7537 19.6422 30.5584C16.8442 30.2425 13.2017 31.0568 10.7557 29.2292C8.3645 27.4418 10.2396 25.6909 12.4411 25.2563C12.9573 25.1541 13.5683 25.3129 14.0043 25.1796C14.5168 25.0226 14.3654 24.4639 14.6262 24.296C14.9199 24.1079 16.9609 24.3398 17.6395 24.254C18.7813 24.1097 20.0635 23.4926 21.2053 23.2589C22.2833 23.038 26.3763 22.7897 26.8159 21.9225C26.8451 20.8836 26.4019 19.5398 25.882 18.6507C25.1853 17.4603 23.9358 16.9381 22.9728 15.9029C21.5446 14.3711 18.7667 10.3799 20.1474 8.32226C21.5282 6.26461 24.1492 8.95946 25.4972 9.72263C27.0767 10.6173 28.888 11.0828 30.4183 12.0998C31.3996 12.7516 33.0211 14.8932 34.0608 14.5901C35.4816 14.1757 36.2641 8.86269 36.9518 7.43128C37.4388 6.41615 38.4803 5.6968 38.8414 4.75835C39.4379 3.2174 38.701 1.25651 40.6909 0.219473C42.2796 -0.607603 42.9764 1.07941 43.2628 2.3465C44.0726 5.93232 42.5824 9.90338 44.058 13.5093L44.0562 13.5111ZM39.0767 22.1452C38.2705 22.2182 36.1036 22.9705 35.5692 23.5784C34.8524 24.3964 34.7156 25.9209 34.38 26.9525C34.1118 27.7759 33.1561 28.6395 34.0133 29.315C34.6864 29.8482 35.6549 29.5925 36.3371 30.0983C38.006 29.9175 42.1191 27.7668 42.0224 25.8442C42.006 25.5119 41.6066 25.2636 41.5245 24.9003C41.4078 24.3891 41.5902 23.8048 41.4515 23.3301C41.2071 22.4976 39.8884 22.0722 39.0785 22.1452H39.0767Z" fill="black"/>
<path d="M6.61006 18.1339C7.68256 18.0171 11.9397 19.3463 12.9156 19.9451C14.3857 20.847 13.3898 22.3898 12.0838 22.8919C10.4039 23.5401 9.32597 23.1859 7.9215 24.7506C4.10755 29.001 10.3675 31.8601 9.88593 35.6596C9.81479 36.2146 9.46459 36.713 9.3971 37.1804C9.16181 38.778 9.56308 41.9475 10.6575 43.2C11.7519 44.4525 14.7651 45.6831 13.4755 47.8357C12.6821 49.1593 10.4696 48.4619 9.91694 49.2013C9.67617 49.5245 9.7163 50.4812 9.42264 51.0801C9.11438 51.71 8.29359 52.3289 8.06742 53.0099C7.64973 54.2697 8.28812 55.3688 8.06559 56.6615C7.90144 57.6182 6.95844 58.5931 6.66113 59.6356C6.42036 60.4846 6.40212 61.4377 6.23614 62.3141C6.08657 63.1028 5.51749 63.8349 5.7765 64.7003C6.11211 65.8177 12.4559 68.4249 13.8604 69.3889C15.0752 70.2233 16.0419 71.275 17.357 72.0966C18.8654 73.0405 22.4459 75.1785 23.7719 73.1117C24.8882 71.3735 23.3889 69.4839 23.6315 67.6745C23.7591 66.7178 24.569 65.9017 24.6967 65.0929C24.9137 63.7345 24.2407 62.3086 24.3775 61.1364C24.5143 59.9643 25.5138 58.982 25.6287 57.8099C25.7327 56.7564 25.7254 54.151 25.2311 53.26C24.9393 52.736 24.1203 52.4403 24.1568 51.7903C24.1987 51.0435 26.8526 47.6366 27.7281 47.4942C29.1764 47.2587 31.0751 48.7504 31.9178 49.8531C34.1467 52.7707 31.0751 52.7506 29.7509 53.8991C28.8407 54.6878 29.7491 57.3133 29.8148 58.531C29.8804 59.7488 29.9333 60.9009 29.4299 61.9763C29.1016 62.6756 28.2844 63.3876 28.1805 64.2074C28.0637 65.1276 28.8134 65.8323 28.9994 66.6521C29.5174 68.9416 27.449 71.0778 28.0747 73.4202C28.6438 74.2309 30.8818 72.5494 31.5439 72.3047C32.5982 71.9158 33.7254 72.0034 34.7432 71.673C36.0856 71.2384 36.9392 69.8563 38.2689 69.3597C39.6716 68.8339 41.5521 69.1808 42.6793 68.1145C43.1189 67.6983 44.8626 64.39 44.9502 63.813C45.149 62.5058 44.133 61.7006 44.2224 60.1688C44.2844 59.1153 44.9392 58.4215 45.0997 57.5762C45.3861 56.0699 44.4814 54.3993 44.2534 52.8492C43.9123 50.5305 43.677 48.5258 44.9939 46.5156C46.1576 44.7373 46.7486 44.0983 48.6109 45.5662C50.154 46.784 52.4321 49.8878 54.0901 50.6711C54.402 50.819 56.7294 51.3357 57.0924 51.3338C59.3687 51.3229 59.9013 48.1533 61.1453 47.5271C62.1412 47.025 63.2465 47.7864 64.3883 47.6732C66.8708 47.4267 68.2351 42.1465 68.4886 40.0871C68.7075 38.3142 68.5397 36.4154 68.9009 34.6572C69.1124 33.6348 69.915 32.1212 69.9405 31.1207C69.9825 29.4428 67.0076 27.0036 67.241 25.7091C67.6004 23.708 71.542 23.8486 72.961 24.8418C77.6104 28.099 72.153 34.0273 72.702 38.0641C72.7932 38.7396 73.2784 39.3531 73.2273 40.067C73.1635 40.9561 71.8995 42.2324 71.542 43.3242C71.1644 44.4708 70.9273 46.2034 71.0386 47.3993C71.1298 48.3962 71.7463 49.2159 71.7809 50.1398C71.801 50.6693 71.5858 51.0983 71.5839 51.5821C71.5803 54.9087 72.3518 58.6515 72.8899 61.9745C73.1599 63.6396 73.9314 65.4087 73.7599 67.0903C73.7107 67.5778 73.4645 68.0506 73.417 68.571C73.2401 70.5136 74.1667 73.0314 73.5484 74.7275C72.7677 76.8728 69.946 74.8863 68.3792 74.7056C66.6464 74.5048 64.5105 74.7147 62.7595 74.4883C61.7892 74.3623 60.7258 73.6686 59.7809 73.4549C58.5224 73.1701 57.3478 73.548 56.0764 73.3271C55.0842 73.1537 54.1941 72.4654 53.1745 72.2152C49.5539 71.3279 40.5033 72.4234 37.5776 74.8736C37.0104 75.3483 36.7258 75.9416 36.1914 76.4072C34.4568 77.9171 31.9889 78.222 29.864 78.8373C28.4212 79.2554 27.0715 80.13 25.5339 79.9821C24.2078 79.8561 23.3615 78.9889 22.2015 78.5708C20.2206 77.8569 15.5603 77.3968 14.123 75.885C13.7364 75.4779 13.833 75.1273 13.5959 74.7695C13.2147 74.1889 8.47417 72.6589 7.39254 72.2152C6.31092 71.7716 3.09524 70.5629 2.36748 69.9421C1.44819 69.1662 -0.0839564 65.2828 0.00359472 64.0723C0.118506 62.4912 1.61782 61.6988 1.86588 60.4992C2.11394 59.2997 1.65247 58.0016 2.12853 56.7454C2.43131 55.9476 3.11531 55.6737 3.52023 55.0347C4.476 53.5266 4.44864 50.7113 4.88092 48.911C5.31321 47.1108 6.24891 45.7086 6.09934 43.7477C6.05009 43.0978 5.71631 42.404 5.74914 41.7613C5.78927 40.9853 6.44955 39.9118 6.4386 39.1778C6.42583 38.2394 5.48284 37.4196 5.18188 36.6345C4.60732 35.1465 4.94841 33.58 4.82438 32.0628C4.55078 28.7453 0.950241 18.7511 6.61188 18.1358L6.61006 18.1339ZM50.7358 50.9924C49.5302 51.3448 49.5174 53.6416 49.2347 54.602C49.0213 55.3232 48.3428 56.2762 48.2479 56.9006C48.0436 58.2499 49.0815 59.2175 49.1581 60.5339C49.2639 62.3707 47.2082 64.4046 48.5252 65.9127C49.1161 66.59 52.5251 67.5832 53.4827 67.7056C54.9 67.8881 56.3683 67.3386 57.6232 67.5778C57.9862 67.6471 58.2178 67.974 58.5881 68.0725C60.6601 68.6276 63.0513 69.2118 65.1653 69.5222C66.3327 69.692 67.6441 70.0006 68.7732 69.5971C69.6633 68.8941 68.0746 65.1659 68.0436 63.9463C68.0272 63.3219 68.2825 62.7358 68.2971 62.1826C68.3555 59.9186 67.9816 56.1685 67.3687 53.9903C66.4622 50.7715 62.9109 52.8584 60.7477 52.5845C59.9615 52.4859 59.1152 51.856 58.3163 51.7319C57.4463 51.5967 56.4887 51.8158 55.666 51.646C55.1699 51.5438 54.7176 51.0563 54.154 50.9687C53.636 50.8884 51.1681 50.8683 50.7376 50.9942L50.7358 50.9924Z" fill="black"/>
</svg>
