<svg width="63" height="63" viewBox="0 0 63 63" fill="none" xmlns="http://www.w3.org/2000/svg">
<path d="M42.26 29.64H32.71V1.48C32.71 0.670002 33.37 0 34.19 0L60.88 0C61.69 0 62.36 0.660002 62.36 1.48V9.55C62.35 20.64 53.35 29.64 42.26 29.64Z" fill="black"/>
<path d="M0 32.72H29.64V62.36H29.6C13.26 62.35 0 49.09 0 32.75V32.71V32.72Z" fill="black"/>
<path d="M62.35 62.35L32.71 62.35V52.72C32.71 41.68 41.68 32.71 52.72 32.71H62.35L62.35 62.35Z" fill="black"/>
<path d="M0 0H9.63C20.67 0 29.64 8.97 29.64 20.01V29.64H0V0Z" fill="black"/>
</svg>
