<svg width="75" height="62" viewBox="0 0 75 62" fill="none" xmlns="http://www.w3.org/2000/svg">
<path d="M6.61006 0.00723231C7.68256 -0.109617 11.9397 1.21955 12.9156 1.8184C14.3857 2.72034 13.3898 4.26312 12.0838 4.7652C10.4039 5.41335 9.32597 5.05915 7.9215 6.62384C4.10755 10.8742 10.3675 13.7334 9.88593 17.5329C9.81479 18.0879 9.46459 18.5863 9.3971 19.0537C9.16181 20.6513 9.56308 23.8208 10.6575 25.0733C11.7519 26.3258 14.7651 27.5564 13.4755 29.7089C12.6821 31.0326 10.4696 30.3352 9.91694 31.0746C9.67617 31.3978 9.7163 32.3545 9.42264 32.9534C9.11438 33.5832 8.29359 34.2022 8.06742 34.8832C7.64973 36.143 8.28812 37.2421 8.06559 38.5347C7.90144 39.4914 6.95844 40.4664 6.66113 41.5089C6.42036 42.3579 6.40212 43.311 6.23614 44.1873C6.08657 44.9761 5.51749 45.7082 5.7765 46.5736C6.11211 47.691 12.4559 50.2982 13.8604 51.2622C15.0752 52.0966 16.0419 53.1482 17.357 53.9698C18.8654 54.9138 22.4459 57.0518 23.7719 54.985C24.8882 53.2468 23.3889 51.3572 23.6315 49.5478C23.7591 48.5911 24.569 47.775 24.6967 46.9662C24.9137 45.6078 24.2407 44.1819 24.3775 43.0097C24.5143 41.8376 25.5138 40.8553 25.6287 39.6832C25.7327 38.6297 25.7254 36.0243 25.2311 35.1333C24.9393 34.6093 24.1203 34.3136 24.1568 33.6636C24.1987 32.9168 26.8526 29.5099 27.7281 29.3675C29.1764 29.132 31.0751 30.6237 31.9178 31.7264C34.1467 34.644 31.0751 34.6239 29.7509 35.7723C28.8407 36.5611 29.7491 39.1865 29.8148 40.4043C29.8804 41.6221 29.9333 42.7742 29.4299 43.8496C29.1016 44.5488 28.2844 45.2609 28.1805 46.0807C28.0637 47.0009 28.8134 47.7056 28.9994 48.5254C29.5174 50.8149 27.449 52.9511 28.0747 55.2935C28.6438 56.1042 30.8818 54.4226 31.5439 54.178C32.5982 53.7891 33.7254 53.8767 34.7432 53.5463C36.0856 53.1117 36.9392 51.7296 38.2689 51.233C39.6716 50.7072 41.5521 51.0541 42.6793 49.9878C43.1189 49.5716 44.8626 46.2633 44.9502 45.6863C45.149 44.3791 44.133 43.5739 44.2224 42.0421C44.2844 40.9886 44.9392 40.2948 45.0997 39.4495C45.3861 37.9432 44.4814 36.2726 44.2534 34.7225C43.9123 32.4038 43.677 30.3991 44.9939 28.3889C46.1576 26.6106 46.7486 25.9716 48.6109 27.4395C50.154 28.6573 52.4321 31.7611 54.0901 32.5444C54.402 32.6923 56.7294 33.209 57.0924 33.2071C59.3687 33.1962 59.9013 30.0266 61.1453 29.4004C62.1412 28.8983 63.2465 29.6597 64.3883 29.5465C66.8708 29.3 68.2351 24.0198 68.4886 21.9604C68.7075 20.1875 68.5397 18.2887 68.9009 16.5305C69.1124 15.5081 69.915 13.9945 69.9405 12.994C69.9825 11.3161 67.0076 8.87685 67.241 7.58238C67.6004 5.58133 71.542 5.72191 72.961 6.71513C77.6104 9.97232 72.153 15.9006 72.702 19.9374C72.7932 20.6129 73.2784 21.2264 73.2273 21.9403C73.1635 22.8294 71.8995 24.1056 71.542 25.1975C71.1644 26.344 70.9273 28.0767 71.0386 29.2726C71.1298 30.2695 71.7463 31.0892 71.7809 32.0131C71.801 32.5425 71.5858 32.9716 71.5839 33.4554C71.5803 36.782 72.3518 40.5248 72.8899 43.8477C73.1599 45.5129 73.9314 47.282 73.7599 48.9636C73.7107 49.4511 73.4645 49.9239 73.417 50.4443C73.2401 52.3869 74.1667 54.9046 73.5484 56.6008C72.7677 58.7461 69.946 56.7596 68.3792 56.5789C66.6464 56.378 64.5105 56.588 62.7595 56.3616C61.7892 56.2356 60.7258 55.5418 59.7809 55.3282C58.5224 55.0434 57.3478 55.4213 56.0764 55.2004C55.0842 55.027 54.1941 54.3387 53.1745 54.0885C49.5539 53.2012 40.5033 54.2967 37.5776 56.7469C37.0104 57.2216 36.7258 57.8149 36.1914 58.2805C34.4568 59.7904 31.9889 60.0953 29.864 60.7106C28.4212 61.1287 27.0715 62.0033 25.5339 61.8554C24.2078 61.7294 23.3615 60.8621 22.2015 60.444C20.2206 59.7302 15.5603 59.2701 14.123 57.7583C13.7364 57.3512 13.833 57.0006 13.5959 56.6428C13.2147 56.0622 8.47417 54.5322 7.39254 54.0885C6.31092 53.6449 3.09524 52.4362 2.36748 51.8154C1.44819 51.0395 -0.0839564 47.1561 0.00359472 45.9456C0.118506 44.3644 1.61782 43.5721 1.86588 42.3725C2.11394 41.173 1.65247 39.8749 2.12853 38.6187C2.43131 37.8209 3.11531 37.547 3.52023 36.908C4.476 35.3999 4.44864 32.5845 4.88092 30.7843C5.31321 28.9841 6.24891 27.5819 6.09934 25.621C6.05009 24.9711 5.71631 24.2773 5.74914 23.6346C5.78927 22.8586 6.44955 21.7851 6.4386 21.0511C6.42583 20.1127 5.48284 19.2929 5.18188 18.5078C4.60732 17.0198 4.94841 15.4533 4.82438 13.9361C4.55078 10.6186 0.950241 0.624345 6.61188 0.00905848L6.61006 0.00723231ZM50.7358 32.8657C49.5302 33.2181 49.5174 35.5149 49.2347 36.4753C49.0213 37.1964 48.3428 38.1495 48.2479 38.7739C48.0436 40.1232 49.0815 41.0908 49.1581 42.4072C49.2639 44.2439 47.2082 46.2779 48.5252 47.7859C49.1161 48.4633 52.5251 49.4565 53.4827 49.5789C54.9 49.7614 56.3683 49.2119 57.6232 49.4511C57.9862 49.5204 58.2178 49.8472 58.5881 49.9458C60.6601 50.5009 63.0513 51.0851 65.1653 51.3955C66.3327 51.5653 67.6441 51.8739 68.7732 51.4704C69.6633 50.7674 68.0746 47.0392 68.0436 45.8196C68.0272 45.1952 68.2825 44.6091 68.2971 44.0559C68.3555 41.7919 67.9816 38.0418 67.3687 35.8636C66.4622 32.6448 62.9109 34.7317 60.7477 34.4578C59.9615 34.3592 59.1152 33.7293 58.3163 33.6051C57.4463 33.47 56.4887 33.6891 55.666 33.5193C55.1699 33.4171 54.7176 32.9296 54.154 32.842C53.636 32.7616 51.1681 32.7416 50.7376 32.8675L50.7358 32.8657Z" fill="black"/>
</svg>
